<svg width="20" height="19" viewBox="0 0 20 19" fill="none" xmlns="http://www.w3.org/2000/svg">
<path d="M10 18.06L2.08003 10.14C1.04436 9.10436 0.462524 7.69969 0.462524 6.23503C0.462524 4.77037 1.04436 3.3657 2.08003 2.33003C3.1157 1.29436 4.52037 0.712524 5.98503 0.712524C7.44969 0.712524 8.85436 1.29436 9.89003 2.33003L10 2.45003L10.11 2.33003C11.1457 1.29436 12.5504 0.712524 14.015 0.712524C15.4797 0.712524 16.8844 1.29436 17.92 2.33003C18.9557 3.3657 19.5375 4.77037 19.5375 6.23503C19.5375 7.69969 18.9557 9.10436 17.92 10.14L10 18.06ZM6.00003 2.22003C5.20137 2.21129 4.41838 2.44185 3.75191 2.88201C3.08543 3.32218 2.56599 3.95178 2.26048 4.68975C1.95496 5.42771 1.87737 6.24024 2.03769 7.02269C2.19801 7.80514 2.58891 8.52168 3.16003 9.08003L10 15.94L16.86 9.08003C17.6146 8.32549 18.0385 7.30211 18.0385 6.23503C18.0385 5.16795 17.6146 4.14457 16.86 3.39003C16.1055 2.63549 15.0821 2.21159 14.015 2.21159C12.9479 2.21159 11.9246 2.63549 11.17 3.39003L10 4.57003L8.83003 3.39003C8.45828 3.01869 8.01701 2.72424 7.53143 2.52348C7.04585 2.32273 6.52547 2.21961 6.00003 2.22003Z" fill="#5C5A55"/>
</svg>
