<svg width="21" height="20" viewBox="0 0 21 20" fill="none" xmlns="http://www.w3.org/2000/svg">
<path fill-rule="evenodd" clip-rule="evenodd" d="M17.0828 2.90805C15.2065 1.03112 12.7047 0 10.0406 0C4.55478 0 0.0859393 4.44761 0.0811649 9.90734C0.0811649 11.656 0.539508 13.3571 1.40845 14.8634L0 20L5.28049 18.622C6.73669 19.4108 8.37431 19.8289 10.0406 19.8289H10.0454C15.5311 19.8289 20 15.3813 20.0048 9.91684C20 7.27014 18.9639 4.78023 17.0828 2.90805ZM10.0406 18.1516C8.55096 18.1516 7.09477 17.7524 5.82478 17.0017L5.52399 16.8211L2.39198 17.6384L3.2275 14.5973L3.03175 14.2837C2.201 12.9722 1.76653 11.4564 1.76653 9.90259C1.76653 5.36945 5.48102 1.67261 10.0454 1.67261C12.2559 1.67261 14.3328 2.53267 15.8988 4.08648C17.46 5.64505 18.3194 7.71205 18.3194 9.91209C18.3146 14.4595 14.6001 18.1516 10.0406 18.1516ZM14.581 11.9838C14.3328 11.8603 13.1105 11.2616 12.8813 11.1761C12.6522 11.0953 12.4851 11.0525 12.3227 11.2996C12.1556 11.5467 11.6782 12.1074 11.535 12.2689C11.3917 12.4353 11.2437 12.4543 10.9955 12.3307C10.7472 12.2072 9.94509 11.9458 8.99498 11.1C8.25495 10.4443 7.75841 9.63174 7.6104 9.38465C7.46717 9.13756 7.59608 9.00451 7.72022 8.88097C7.83003 8.77168 7.96849 8.59111 8.09262 8.44856C8.21675 8.30601 8.25972 8.20147 8.34089 8.03516C8.42205 7.86885 8.38386 7.7263 8.32179 7.60276C8.25972 7.47921 7.76319 6.25802 7.55311 5.76384C7.35259 5.27916 7.14729 5.34569 6.99451 5.34094C6.85127 5.33143 6.68417 5.33143 6.51707 5.33143C6.34996 5.33143 6.08259 5.3932 5.85342 5.64029C5.62425 5.88738 4.98448 6.4861 4.98448 7.70729C4.98448 8.92849 5.8773 10.1022 6.00143 10.2685C6.12556 10.4348 7.75364 12.9342 10.2507 14.0081C10.8427 14.2647 11.3058 14.4167 11.6687 14.5308C12.2655 14.7208 12.805 14.6923 13.2347 14.6306C13.7121 14.5593 14.7052 14.0318 14.9152 13.4521C15.1205 12.8724 15.1205 12.3782 15.0585 12.2737C14.9964 12.1692 14.8293 12.1074 14.581 11.9838Z" fill="#66CE5C"/>
</svg>
